<svg xmlns="http://www.w3.org/2000/svg" viewBox="0 0 20 20"><path d="M11 9h4v2h-4v4H9v-4H5V9h4V5h2v4zm-1 11a10 10 0 1 1 0-20 10 10 0 0 1 0 20zm0-2a8 8 0 1 0 0-16 8 8 0 0 0 0 16z"/></svg>

<svg width="30" height="30" fill="none" xmlns="http://www.w3.org/2000/svg"><g opacity=".5"><path d="M15 29.5c-.32 0-.636-.01-.95-.03l-.032.498a15.01 15.01 0 01-1.945-.253l.097-.491a14.397 14.397 0 01-1.833-.49l-.16.474a14.918 14.918 0 01-1.813-.752l.222-.448a14.487 14.487 0 01-1.642-.95l-.278.416a15.071 15.071 0 01-1.556-1.196l.33-.376a14.595 14.595 0 01-1.342-1.342l-.376.33a15.07 15.07 0 01-1.195-1.556l.415-.278a14.49 14.49 0 01-.95-1.642l-.448.222a14.911 14.911 0 01-.752-1.813l.474-.16a14.392 14.392 0 01-.49-1.833l-.49.097a15.01 15.01 0 01-.254-1.945l.499-.032a14.724 14.724 0 010-1.9l-.5-.032c.043-.661.129-1.31.255-1.945l.49.097c.124-.627.288-1.238.49-1.833l-.474-.16c.212-.624.464-1.23.752-1.813l.448.222c.281-.57.6-1.118.95-1.642l-.415-.278C2.89 6.12 3.29 5.6 3.722 5.11l.376.33c.418-.476.866-.924 1.342-1.342l-.33-.376c.491-.431 1.01-.83 1.556-1.195l.278.415c.524-.35 1.072-.669 1.642-.95l-.222-.448c.584-.288 1.19-.54 1.813-.752l.16.474a14.392 14.392 0 011.833-.49l-.097-.49a15.01 15.01 0 011.945-.254l.032.499a14.724 14.724 0 011.9 0l.032-.5c.661.043 1.31.129 1.945.255l-.097.49c.627.124 1.238.288 1.833.49l.16-.474c.624.212 1.23.464 1.813.752l-.222.448c.57.281 1.118.6 1.642.95l.278-.415a15.07 15.07 0 011.556 1.195l-.33.376c.476.418.924.866 1.342 1.342l.376-.33c.431.491.83 1.01 1.196 1.556l-.416.278c.35.524.669 1.072.95 1.642l.448-.222c.288.584.54 1.19.752 1.813l-.474.16c.202.595.366 1.206.49 1.833l.49-.097c.126.635.212 1.284.254 1.945l-.499.032a14.713 14.713 0 010 1.9l.5.032a15.01 15.01 0 01-.255 1.945l-.49-.097a14.397 14.397 0 01-.49 1.833l.474.16a14.92 14.92 0 01-.752 1.813l-.448-.222c-.281.57-.6 1.118-.95 1.642l.416.278a15.078 15.078 0 01-1.196 1.556l-.376-.33c-.418.476-.866.924-1.342 1.342l.33.376c-.491.431-1.01.83-1.556 1.196l-.278-.416c-.524.35-1.072.669-1.642.95l.222.448a14.92 14.92 0 01-1.813.752l-.16-.474c-.595.202-1.206.366-1.833.49l.097.49a15.01 15.01 0 01-1.945.254l-.032-.499c-.314.02-.63.031-.95.031z" stroke="#9898AE" stroke-dasharray="2 2"/><path fill-rule="evenodd" clip-rule="evenodd" d="M20.64 15.64h-5v5H14v-5H9V14h5V9h1.64v5h5v1.64z" fill="#9898AE"/></g></svg>