<svg width="30" height="30" viewBox="0 0 30 30" fill="none" xmlns="http://www.w3.org/2000/svg">
<g opacity="0.5">
<path d="M15 29.5C14.6808 29.5 14.3642 29.4897 14.0503 29.4694L14.018 29.9684C13.357 29.9257 12.7076 29.8401 12.0726 29.7145L12.1696 29.224C11.5434 29.1001 10.9317 28.9359 10.3373 28.7342L10.1766 29.2077C9.55307 28.996 8.94792 28.7445 8.36423 28.4561L8.58571 28.0078C8.01637 27.7265 7.46809 27.4089 6.94392 27.058L6.66576 27.4735C6.12079 27.1086 5.60106 26.709 5.10974 26.2778L5.43956 25.902C4.96379 25.4844 4.51557 25.0362 4.09799 24.5604L3.7222 24.8903C3.29099 24.3989 2.89137 23.8792 2.52652 23.3342L2.942 23.0561C2.59108 22.5319 2.27346 21.9836 1.99216 21.4143L1.54389 21.6358C1.2555 21.0521 1.00397 20.4469 0.79234 19.8234L1.26582 19.6627C1.0641 19.0683 0.899892 18.4566 0.776005 17.8304L0.285511 17.9274C0.159892 17.2924 0.0743492 16.643 0.0316296 15.982L0.530589 15.9497C0.510304 15.6358 0.5 15.3192 0.5 15C0.5 14.6808 0.510304 14.3642 0.530589 14.0503L0.0316296 14.018C0.0743492 13.357 0.159891 12.7076 0.285511 12.0726L0.776005 12.1696C0.899892 11.5434 1.0641 10.9317 1.26582 10.3373L0.79234 10.1766C1.00397 9.55307 1.2555 8.94792 1.54389 8.36423L1.99216 8.58571C2.27346 8.01637 2.59108 7.46809 2.942 6.94392L2.52652 6.66576C2.89137 6.12079 3.29099 5.60106 3.7222 5.10974L4.09799 5.43956C4.51557 4.96379 4.96379 4.51557 5.43956 4.09799L5.10974 3.7222C5.60106 3.29099 6.12079 2.89137 6.66576 2.52652L6.94392 2.942C7.46809 2.59108 8.01637 2.27346 8.58571 1.99216L8.36423 1.54389C8.94792 1.2555 9.55307 1.00397 10.1766 0.79234L10.3373 1.26582C10.9317 1.0641 11.5434 0.899892 12.1696 0.776005L12.0726 0.285511C12.7076 0.159892 13.357 0.0743492 14.018 0.0316296L14.0503 0.530589C14.3642 0.510304 14.6808 0.5 15 0.5C15.3192 0.5 15.6358 0.510304 15.9497 0.530589L15.982 0.0316296C16.643 0.0743491 17.2924 0.159891 17.9274 0.285511L17.8304 0.776005C18.4566 0.899892 19.0683 1.0641 19.6627 1.26582L19.8234 0.79234C20.4469 1.00397 21.0521 1.2555 21.6358 1.54389L21.4143 1.99216C21.9836 2.27346 22.5319 2.59108 23.0561 2.942L23.3342 2.52652C23.8792 2.89137 24.3989 3.29099 24.8903 3.7222L24.5604 4.09799C25.0362 4.51557 25.4844 4.96379 25.902 5.43956L26.2778 5.10974C26.709 5.60106 27.1086 6.12079 27.4735 6.66576L27.058 6.94392C27.4089 7.46809 27.7265 8.01637 28.0078 8.58571L28.4561 8.36423C28.7445 8.94792 28.996 9.55307 29.2077 10.1766L28.7342 10.3373C28.9359 10.9317 29.1001 11.5434 29.224 12.1696L29.7145 12.0726C29.8401 12.7076 29.9257 13.357 29.9684 14.018L29.4694 14.0503C29.4897 14.3642 29.5 14.6808 29.5 15C29.5 15.3192 29.4897 15.6358 29.4694 15.9497L29.9684 15.982C29.9257 16.643 29.8401 17.2924 29.7145 17.9274L29.224 17.8304C29.1001 18.4566 28.9359 19.0683 28.7342 19.6627L29.2077 19.8234C28.996 20.4469 28.7445 21.0521 28.4561 21.6358L28.0078 21.4143C27.7265 21.9836 27.4089 22.5319 27.058 23.0561L27.4735 23.3342C27.1086 23.8792 26.709 24.3989 26.2778 24.8903L25.902 24.5604C25.4844 25.0362 25.0362 25.4844 24.5604 25.902L24.8903 26.2778C24.3989 26.709 23.8792 27.1086 23.3342 27.4735L23.0561 27.058C22.5319 27.4089 21.9836 27.7265 21.4143 28.0078L21.6358 28.4561C21.0521 28.7445 20.4469 28.996 19.8234 29.2077L19.6627 28.7342C19.0683 28.9359 18.4566 29.1001 17.8304 29.224L17.9274 29.7145C17.2924 29.8401 16.643 29.9257 15.982 29.9684L15.9497 29.4694C15.6358 29.4897 15.3192 29.5 15 29.5Z" stroke="#9898AE" stroke-dasharray="2 2"/>
<path fill-rule="evenodd" clip-rule="evenodd" d="M20.64 15.64H15.64V20.64H14V15.64H9V14H14V9H15.64V14H20.64V15.64Z" fill="#9898AE"/>
</g>
</svg>
